<?xml version="1.0" standalone="no"?>
<!DOCTYPE svg PUBLIC "-//W3C//DTD SVG 20010904//EN"
 "http://www.w3.org/TR/2001/REC-SVG-20010904/DTD/svg10.dtd">
<svg version="1.0" xmlns="http://www.w3.org/2000/svg"
 width="512.000000pt" height="512.000000pt" viewBox="0 0 512.000000 512.000000"
 preserveAspectRatio="xMidYMid meet">
<metadata>
Created by potrace 1.14, written by Peter Selinger 2001-2017
</metadata>
<g transform="translate(0.000000,512.000000) scale(0.100000,-0.100000)"
fill="#000000" stroke="none">
<path d="M655 4597 c-61 -29 -117 -89 -138 -148 -38 -108 -38 -132 -35 -2014
l3 -1830 21 -46 c27 -58 85 -116 143 -143 46 -21 53 -21 1051 -26 1140 -6
1020 4 1188 -97 227 -135 438 -193 702 -193 77 0 177 7 226 15 562 96 1003
539 1100 1105 22 129 14 422 -15 561 -40 185 -109 350 -209 502 l-47 70 -6
991 c-4 658 -9 1008 -17 1043 -20 94 -70 165 -147 206 l-40 22 -1865 2 -1865
3 -50 -23z m2817 -784 l118 -118 120 120 120 120 52 -53 53 -52 -120 -120
-120 -120 123 -123 122 -122 -52 -53 -53 -52 -122 122 -123 123 -120 -120
-120 -120 -52 53 -53 52 120 120 120 120 -120 120 -119 120 49 50 c27 27 52
50 54 50 3 0 59 -53 123 -117z m-1502 -198 l0 -75 -440 0 -440 0 0 75 0 75
440 0 440 0 0 -75z m-390 -1865 l0 -170 170 0 170 0 0 -75 0 -75 -170 0 -170
0 0 -170 0 -170 -75 0 -75 0 0 170 0 170 -170 0 -170 0 0 75 0 75 170 0 170 0
0 170 0 170 75 0 75 0 0 -170z m2450 -45 l0 -75 -440 0 -440 0 0 75 0 75 440
0 440 0 0 -75z m0 -340 l0 -75 -440 0 -440 0 0 75 0 75 440 0 440 0 0 -75z"/>
</g>
</svg>
